<svg width="125" height="32" viewBox="0 0 125 32" fill="none" xmlns="http://www.w3.org/2000/svg">
<g clip-path="url(#clip0_16_10951)">
<path d="M41.6704 18.6245V19.2505H39.5767V26.1726H38.8208V19.2505H36.7183V18.6245H41.6704Z" fill="white"/>
<path d="M44.6284 19.2393V22.0558H47.4888V22.6818H44.6284V25.5422H47.812V26.1731H43.8716V18.6143H47.811V19.2393H44.6284Z" fill="white"/>
<path d="M50.4463 20.3998C50.7546 19.8308 51.2138 19.3577 51.7734 19.0326C52.3441 18.7039 52.9929 18.5352 53.6514 18.5443C54.4932 18.5443 55.2145 18.7438 55.8154 19.1429C56.4227 19.5484 56.8835 20.1383 57.1299 20.8256H56.2412C56.0417 20.3355 55.6972 19.9181 55.2539 19.6293C54.8118 19.3409 54.2777 19.197 53.6514 19.1976C53.1268 19.1901 52.6101 19.3252 52.1562 19.5883C51.7092 19.8521 51.3477 20.2393 51.1152 20.7035C50.8545 21.2279 50.7248 21.8076 50.7373 22.393C50.7242 22.9767 50.8539 23.5547 51.1152 24.0767C51.3485 24.5393 51.7099 24.9251 52.1562 25.1881C52.6101 25.4512 53.1268 25.5862 53.6514 25.5787C54.277 25.5787 54.8112 25.4368 55.2539 25.1529C55.6959 24.869 56.0404 24.4566 56.2412 23.9712H57.1299C56.8828 24.6564 56.4207 25.2433 55.8125 25.6441C55.2077 26.0393 54.4883 26.2369 53.6543 26.2369C52.9958 26.246 52.347 26.0773 51.7764 25.7486C51.2173 25.4228 50.7583 24.9499 50.4492 24.3814C50.1297 23.7671 49.9629 23.0849 49.9629 22.3926C49.9629 21.7002 50.1297 21.018 50.4492 20.4037L50.4463 20.3998Z" fill="white"/>
<path d="M65.2339 18.6245V26.1726H64.478V22.6393H60.3843V26.1726H59.6294V18.6245H60.3843V22.0133H64.4751V18.6245H65.2339Z" fill="white"/>
<path d="M73.6489 26.1726H72.8931L68.7163 19.8247V26.1726H67.9604V18.6245H68.7163L72.8931 24.9597V18.6245H73.6489V26.1726Z" fill="white"/>
<path d="M77.8579 25.7534C77.2929 25.4298 76.8279 24.9568 76.5142 24.3862C76.1915 23.772 76.0229 23.0887 76.0229 22.3949C76.0229 21.7012 76.1915 21.0178 76.5142 20.4036C76.8279 19.833 77.2929 19.36 77.8579 19.0364C78.4412 18.715 79.0963 18.5464 79.7622 18.5464C80.4282 18.5464 81.0833 18.715 81.6665 19.0364C82.2308 19.3591 82.694 19.8325 83.0044 20.4036C83.324 21.0188 83.4908 21.7017 83.4908 22.3949C83.4908 23.0881 83.324 23.7711 83.0044 24.3862C82.694 24.9573 82.2308 25.4307 81.6665 25.7534C81.0833 26.0749 80.4282 26.2434 79.7622 26.2434C79.0963 26.2434 78.4412 26.0749 77.8579 25.7534ZM81.2681 25.1968C81.7187 24.9324 82.0849 24.5452 82.3238 24.0805C82.5801 23.5545 82.7134 22.9771 82.7134 22.392C82.7134 21.8069 82.5801 21.2294 82.3238 20.7035C82.0834 20.2405 81.7167 19.8551 81.2661 19.5921C80.8034 19.3372 80.2837 19.2035 79.7554 19.2035C79.2271 19.2035 78.7074 19.3372 78.2447 19.5921C77.7949 19.8554 77.4288 20.2407 77.189 20.7035C76.9332 21.2289 76.8003 21.8056 76.8003 22.39C76.8003 22.9744 76.9332 23.5512 77.189 24.0766C77.4279 24.5426 77.7948 24.9309 78.2466 25.1958C78.7093 25.4507 79.229 25.5844 79.7573 25.5844C80.2856 25.5844 80.8054 25.4507 81.2681 25.1958V25.1968Z" fill="white"/>
<path d="M86.6328 25.5534H89.3418V26.1726H85.877V18.6245H86.6328V25.5534Z" fill="white"/>
<path d="M92.9141 25.7534C92.349 25.4298 91.8841 24.9568 91.5703 24.3862C91.2477 23.772 91.0791 23.0887 91.0791 22.3949C91.0791 21.7012 91.2477 21.0178 91.5703 20.4036C91.8841 19.833 92.349 19.36 92.9141 19.0364C93.4973 18.715 94.1524 18.5464 94.8184 18.5464C95.4843 18.5464 96.1394 18.715 96.7227 19.0364C97.2869 19.3591 97.7502 19.8325 98.0606 20.4036C98.3801 21.0188 98.5469 21.7017 98.5469 22.3949C98.5469 23.0881 98.3801 23.7711 98.0606 24.3862C97.7502 24.9573 97.2869 25.4307 96.7227 25.7534C96.1394 26.0749 95.4843 26.2434 94.8184 26.2434C94.1524 26.2434 93.4973 26.0749 92.9141 25.7534ZM96.3242 25.1968C96.7756 24.9326 97.1425 24.5455 97.3819 24.0805C97.6376 23.5551 97.7705 22.9783 97.7705 22.3939C97.7705 21.8095 97.6376 21.2328 97.3819 20.7074C97.1415 20.2444 96.7748 19.859 96.3242 19.596C95.8615 19.3411 95.3418 19.2074 94.8135 19.2074C94.2852 19.2074 93.7655 19.3411 93.3028 19.596C92.8527 19.8582 92.4858 20.242 92.2442 20.7035C91.9884 21.2289 91.8555 21.8056 91.8555 22.39C91.8555 22.9744 91.9884 23.5512 92.2442 24.0766C92.4838 24.5425 92.8509 24.9306 93.3028 25.1958C93.7655 25.4507 94.2852 25.5844 94.8135 25.5844C95.3418 25.5844 95.8615 25.4507 96.3242 25.1958V25.1968Z" fill="white"/>
<path d="M106.87 20.8258C106.666 20.3445 106.321 19.9361 105.881 19.6539C105.413 19.3623 104.87 19.2143 104.319 19.2281C103.789 19.2201 103.267 19.355 102.808 19.6187C102.362 19.8818 101.998 20.2648 101.758 20.7242C101.503 21.2438 101.37 21.8151 101.37 22.3942C101.37 22.9733 101.503 23.5446 101.758 24.0642C101.999 24.5272 102.365 24.9125 102.816 25.1755C103.263 25.422 103.764 25.5553 104.275 25.5638C104.785 25.5723 105.29 25.4558 105.746 25.2244C106.167 24.9976 106.518 24.6598 106.76 24.2478C107.024 23.8 107.174 23.2943 107.198 22.7751H104.025V22.1686H107.997V22.7194C107.969 23.354 107.783 23.9716 107.457 24.5163C107.14 25.0447 106.69 25.481 106.153 25.782C105.594 26.0952 104.963 26.2553 104.323 26.2459C103.657 26.255 103.002 26.0864 102.423 25.7576C101.858 25.434 101.393 24.9609 101.08 24.3903C100.758 23.776 100.589 23.0927 100.589 22.3991C100.589 21.7054 100.758 21.0222 101.08 20.4078C101.393 19.8372 101.858 19.3641 102.423 19.0406C103.042 18.7005 103.74 18.5318 104.446 18.5519C105.152 18.572 105.84 18.7801 106.438 19.1548C107.045 19.5609 107.507 20.1505 107.755 20.8375L106.87 20.8258Z" fill="white"/>
<path d="M111.133 18.6245V26.1726H110.377V18.6245H111.133Z" fill="white"/>
<path d="M114.607 19.2393V22.0558H117.467V22.6818H114.607V25.5422H117.791V26.1731H113.852V18.6143H117.791V19.2393H114.607Z" fill="white"/>
<path d="M121.262 25.9852C120.905 25.8297 120.597 25.5798 120.371 25.2625C120.157 24.9583 120.037 24.5981 120.025 24.2263H120.824C120.863 24.5973 121.037 24.941 121.312 25.1922C121.6 25.4695 122.021 25.6079 122.575 25.6072C123.086 25.6072 123.491 25.477 123.79 25.2166C123.934 25.0941 124.049 24.9409 124.127 24.7682C124.204 24.5955 124.242 24.4077 124.237 24.2185C124.251 23.9368 124.163 23.6596 123.989 23.4372C123.825 23.2397 123.613 23.0872 123.374 22.9939C123.042 22.869 122.703 22.7627 122.359 22.6755C121.951 22.5715 121.551 22.438 121.162 22.2761C120.862 22.1436 120.602 21.9357 120.406 21.6725C120.197 21.3991 120.093 21.0283 120.094 20.5602C120.088 20.1909 120.194 19.8284 120.395 19.5191C120.607 19.2048 120.902 18.9561 121.248 18.8014C121.645 18.6224 122.076 18.534 122.511 18.5426C123.209 18.5426 123.772 18.7131 124.2 19.0543C124.406 19.2134 124.578 19.4125 124.705 19.6398C124.832 19.867 124.912 20.1177 124.939 20.3766H124.119C124.057 20.0485 123.876 19.7547 123.611 19.5514C123.324 19.3098 122.936 19.1894 122.446 19.19C122.038 19.175 121.637 19.3028 121.312 19.5514C121.164 19.6685 121.046 19.819 120.967 19.9906C120.889 20.1622 120.852 20.3501 120.859 20.5387C120.846 20.8159 120.935 21.0883 121.107 21.3053C121.275 21.5011 121.489 21.6529 121.729 21.7477C122.058 21.8752 122.395 21.9831 122.737 22.071C123.142 22.1789 123.539 22.3143 123.925 22.4763C124.228 22.6101 124.492 22.82 124.69 23.0857C124.899 23.3591 125.004 23.7263 125.004 24.1873C125.003 24.5408 124.907 24.8876 124.724 25.1902C124.524 25.5188 124.236 25.7845 123.893 25.9568C123.484 26.1611 123.032 26.2618 122.575 26.2498C122.123 26.2579 121.675 26.1676 121.262 25.9852Z" fill="white"/>
<path d="M84.605 5.75635V8.07087H81.0337V15.7596H78.7202V8.07087H75.0845V5.75635H84.605Z" fill="white"/>
<path d="M46.2378 5.75635V8.07087H42.6665V15.7596H40.3521V8.07087H36.7173V5.75635H46.2378Z" fill="white"/>
<path d="M86.3584 8.91513V12.635C86.3584 13.4682 86.6894 14.2673 87.2786 14.8565C87.8677 15.4457 88.6668 15.7767 89.5 15.7767H92.8887C93.7219 15.7767 94.521 15.4457 95.1101 14.8565C95.6993 14.2673 96.0303 13.4682 96.0303 12.635V8.91513C96.03 8.08207 95.6989 7.28322 95.1098 6.69425C94.5206 6.10528 93.7217 5.77441 92.8887 5.77441H89.5C89.0875 5.77429 88.679 5.85543 88.2978 6.01321C87.9167 6.17099 87.5703 6.40231 87.2786 6.69396C86.9869 6.98562 86.7554 7.33189 86.5976 7.71301C86.4397 8.09412 86.3584 8.50261 86.3584 8.91513ZM92.3154 13.4621H90.0781C89.8936 13.4621 89.7108 13.4258 89.5404 13.3552C89.3699 13.2846 89.2149 13.181 89.0844 13.0505C88.954 12.92 88.8504 12.7651 88.7798 12.5946C88.7092 12.4241 88.6729 12.2414 88.6729 12.0568V9.49425C88.6729 9.12145 88.8209 8.7639 89.0844 8.5002C89.3479 8.2365 89.7053 8.08822 90.0781 8.08796H92.3105C92.6833 8.08822 93.0408 8.2365 93.3043 8.5002C93.5678 8.7639 93.7158 9.12145 93.7158 9.49425V12.0568C93.7158 12.4295 93.5678 12.787 93.3042 13.0505C93.0407 13.3141 92.6833 13.4621 92.3105 13.4621H92.3154Z" fill="white"/>
<path d="M112.46 5.77441H110.146V15.7776H112.46V5.77441Z" fill="white"/>
<path d="M107.774 8.91513V15.7767H105.46V9.49425C105.46 9.12128 105.312 8.76359 105.049 8.49985C104.785 8.23612 104.427 8.08796 104.054 8.08796H101.823C101.45 8.08796 101.092 8.23612 100.828 8.49985C100.565 8.76359 100.417 9.12128 100.417 9.49425V15.7767H98.103V8.91513C98.103 8.08216 98.4339 7.28331 99.0229 6.69431C99.6119 6.10531 100.411 5.77441 101.244 5.77441H104.632C105.045 5.77429 105.453 5.85543 105.834 6.01321C106.216 6.17099 106.562 6.40231 106.854 6.69396C107.145 6.98562 107.377 7.33189 107.535 7.71301C107.693 8.09412 107.774 8.50261 107.774 8.91513Z" fill="white"/>
<path d="M118.139 5.9397H125V8.25422H118.717C118.344 8.25422 117.987 8.40228 117.723 8.66583C117.46 8.92938 117.312 9.28682 117.312 9.65954V11.892C117.312 12.2647 117.46 12.6222 117.723 12.8857C117.987 13.1493 118.344 13.2973 118.717 13.2973H125V15.6119H118.139C117.306 15.6116 116.507 15.2805 115.918 14.6914C115.328 14.1023 114.997 13.3033 114.997 12.4702V9.08237C114.997 8.66972 115.078 8.26108 115.236 7.8798C115.394 7.49852 115.625 7.15206 115.917 6.86022C116.209 6.56839 116.555 6.33688 116.936 6.17894C117.317 6.02099 117.726 5.9397 118.139 5.9397Z" fill="white"/>
<path d="M62.3052 9.43517V9.60022H67.3481V11.9147H62.3052V12.0808C62.3052 12.4434 62.4492 12.7911 62.7056 13.0475C62.962 13.3039 63.3098 13.448 63.6724 13.448H69.6655V15.7625H63.0962C62.2713 15.7625 61.4801 15.4348 60.8968 14.8515C60.3135 14.2682 59.9858 13.477 59.9858 12.6521V8.86679C59.9858 8.04185 60.3135 7.2507 60.8968 6.66738C61.4801 6.08405 62.2713 5.75635 63.0962 5.75635H69.6577V8.07087H63.6645C63.3038 8.07293 62.9585 8.21749 62.7039 8.47304C62.4493 8.72859 62.3059 9.07442 62.3052 9.43517Z" fill="white"/>
<path d="M57.9219 5.75635V15.7596H55.6074V11.9147H50.4971V15.7596H48.1826V5.75635H50.4971V9.60022H55.6074V5.75635H57.9219Z" fill="white"/>
<path d="M16.3086 4.19056C16.311 7.23104 15.8162 10.2515 14.8437 13.1322C14.7031 13.5502 14.5524 13.9636 14.3916 14.3725C14.0193 15.3198 13.5955 16.246 13.1221 17.147C10.2403 16.1737 7.2185 15.6788 4.17676 15.6821C2.78095 15.6816 1.38708 15.7858 0.00683594 15.9937L8.01465 7.98559L15.998 0C16.2062 1.38713 16.31 2.78791 16.3086 4.19056Z" fill="white"/>
<path d="M15.6875 27.8095C15.6868 29.2112 15.7916 30.6111 16.001 31.9971L0 16.0005L0.00683594 15.9937C1.38965 15.7854 2.78616 15.6813 4.18457 15.6821C7.22631 15.6788 10.2481 16.1737 13.1299 17.147C13.5459 17.2864 13.9577 17.4361 14.3652 17.5963C15.3164 17.9676 16.2462 18.3915 17.1504 18.8658C16.1778 21.7472 15.6836 24.7684 15.6875 27.8095Z" fill="#30C0CF"/>
<path d="M31.9922 16.0074L23.9844 24.0154L15.999 32.002C15.3351 27.597 15.7291 23.0972 17.1484 18.8746C17.2891 18.456 17.4395 18.0423 17.5996 17.6334C17.9711 16.6858 18.395 15.7595 18.8691 14.8589C21.7507 15.8318 24.7721 16.3266 27.8135 16.3238C29.2123 16.3225 30.6091 16.2168 31.9922 16.0074Z" fill="white"/>
<path d="M31.999 16.0005L31.9922 16.0073C30.609 16.2148 29.2122 16.3186 27.8135 16.3179C24.7721 16.3207 21.7507 15.8259 18.8691 14.853C18.4521 14.7124 18.042 14.56 17.6348 14.4028C16.6837 14.0312 15.7539 13.6074 14.8496 13.1332C15.822 10.2524 16.3168 7.23202 16.3145 4.19153C16.3139 2.78841 16.2082 1.3873 15.998 0L23.9785 7.98169L24.0146 8.0188L31.999 16.0005Z" fill="#30C0CF"/>
</g>
<defs>
<clipPath id="clip0_16_10951">
<rect width="125" height="32" fill="white"/>
</clipPath>
</defs>
</svg>
